<svg id="Ebene_1" data-name="Ebene 1" xmlns="http://www.w3.org/2000/svg" viewBox="0 0 91.73 26"><defs><style>.cls-1{fill:#343333;}</style></defs><path class="cls-1" d="M23.48,15.88h.27a.19.19,0,0,0,.11-.16.16.16,0,0,0-.05-.11l0,0a1,1,0,0,0-.17-.12,2.07,2.07,0,0,0-.62-.29l-.21-.05-.09,0h-.61a.07.07,0,0,0,0,.12v0a.48.48,0,0,1,.14.2h0v0a0,0,0,0,1,0,0h0a.51.51,0,0,1-.3-.1h0a1.18,1.18,0,0,0-.29-.16l-.12,0-.24,0h-.05a.11.11,0,0,1-.06-.1.11.11,0,0,1,.07-.1h0l.27,0h.16l.33,0h.13a.87.87,0,0,0,.32-.06.08.08,0,0,0,.06-.08.07.07,0,0,0,0,0l0,0a1.88,1.88,0,0,0-.23-.16l-.24-.12a1.9,1.9,0,0,0-.63-.11h-.09a.91.91,0,0,0-.23,0,.41.41,0,0,0,.07-.22.37.37,0,0,0-.14-.28,1.25,1.25,0,0,0-.59-.25l-.21,0h-.24l-.41,0a6.14,6.14,0,0,0-2.18.55,5.92,5.92,0,0,0,.56,1.18,2.46,2.46,0,0,1,0,3.06,3.12,3.12,0,0,1,.53.11l.11,0a.52.52,0,0,1,.3.47.66.66,0,0,1-.06.25h0a2.17,2.17,0,0,1-1,.95,2.83,2.83,0,0,1-.4.17,6.4,6.4,0,0,0,.88.06A7,7,0,0,0,20,20.2l.52-.16h0c.23-.08.46-.17.68-.27l.37-.19.1-.08a.73.73,0,0,0,.22-.52h0a.71.71,0,0,0-.3-.57.36.36,0,0,1,.27-.12.35.35,0,0,1,.14,0l0,0a1.24,1.24,0,0,0,.6.15,1.31,1.31,0,0,0,.56-.12l.15-.08h0a.63.63,0,0,0,.23-.34.59.59,0,0,0,0-.14.2.2,0,0,0,0-.07.29.29,0,0,0,0-.09.48.48,0,0,1-.23.17l-.1,0a3,3,0,0,1-.67.07h-.1a3,3,0,0,1-.31,0l.3,0a1.63,1.63,0,0,0,.39-.13,1.48,1.48,0,0,0,.34-.21l.18-.16a1.66,1.66,0,0,0,.22-.3h0a1.61,1.61,0,0,0,.23-.84v0h0v0a.24.24,0,0,0-.06-.11h0a.75.75,0,0,0-.49-.17h0l.15,0,.12,0"/><path class="cls-1" d="M5.2,19.26h0A.51.51,0,0,1,5.13,19a.52.52,0,0,1,.3-.47l.11,0a3.12,3.12,0,0,1,.53-.11,2.46,2.46,0,0,1,0-3.06,5.92,5.92,0,0,0,.56-1.18,6.14,6.14,0,0,0-2.18-.55l-.41,0H3.76l-.21,0a1.25,1.25,0,0,0-.59.25.37.37,0,0,0-.14.28.34.34,0,0,0,.07.22l-.24,0H2.56a1.88,1.88,0,0,0-.62.11l-.24.12a1.88,1.88,0,0,0-.23.16l0,0a.07.07,0,0,0,0,0,.09.09,0,0,0,.05.08,1,1,0,0,0,.33.06h.13l.33,0h.16l.27,0h0a.1.1,0,0,1,.07.1.11.11,0,0,1-.06.1H2.69l-.24,0-.12,0a1.18,1.18,0,0,0-.29.16H2a.51.51,0,0,1-.3.1h0a0,0,0,0,1,0,0v0a.48.48,0,0,1,.14-.2v0l0,0a.09.09,0,0,0-.06-.08H1.2l-.09,0-.21.05a2,2,0,0,0-.62.29,1,1,0,0,0-.17.12l0,0a.16.16,0,0,0,0,.11.19.19,0,0,0,.11.16H.4l.12,0,.15,0h0a.75.75,0,0,0-.49.17h0a.24.24,0,0,0-.06.11h0v0A1.61,1.61,0,0,0,.32,17h0a1.66,1.66,0,0,0,.22.3l.18.16a1.42,1.42,0,0,0,.33.21,1.87,1.87,0,0,0,.4.13l.3,0a3,3,0,0,1-.31,0h-.1a3,3,0,0,1-.67-.07l-.1,0a.48.48,0,0,1-.23-.17.29.29,0,0,0,0,.09.2.2,0,0,0,0,.07.59.59,0,0,0,0,.14.58.58,0,0,0,.23.34h0l.15.08a1.3,1.3,0,0,0,.55.12,1.25,1.25,0,0,0,.61-.15l0,0a.32.32,0,0,1,.14,0,.36.36,0,0,1,.27.12A.71.71,0,0,0,2,19H2a.73.73,0,0,0,.22.52.39.39,0,0,0,.1.08l.37.19c.22.1.45.19.68.27h0l.52.16a7,7,0,0,0,1.79.23,6.4,6.4,0,0,0,.88-.06,2.83,2.83,0,0,1-.4-.17,2.25,2.25,0,0,1-1-.94"/><path class="cls-1" d="M9.33,5.15h0m1,1.8a.36.36,0,1,1,0,.71.36.36,0,1,1,0-.71m1.62,0a.36.36,0,1,1,0,.71.36.36,0,1,1,0-.71m1.61,0a.36.36,0,1,1,0,.71.36.36,0,0,1,0-.71M8.69,7a.36.36,0,0,1,.36.36.36.36,0,0,1-.11.25l-.09.06,0,.31a8.82,8.82,0,0,0,3,.71,8.82,8.82,0,0,0,3-.71l0-.3-.11-.07a.36.36,0,0,1-.11-.25A.36.36,0,0,1,15.15,7h0l.92-3.68c-.56.31-1,.46-1.17.91A.86.86,0,0,0,15,5h0a.76.76,0,0,0-.24-.17,1.62,1.62,0,0,0-1,0,1.5,1.5,0,0,0,.58.82.67.67,0,0,0,.4.14l.1,0-.15.58a2.93,2.93,0,0,1-2.34-.26v-1l0,0a.28.28,0,0,0,.13,0,.76.76,0,0,0,.41-.13,1.56,1.56,0,0,0,.57-.83,1.66,1.66,0,0,0-1,0l-.09.06.08-.11a.76.76,0,0,0,.09-.49,2.23,2.23,0,0,0-.61-1.2,2.3,2.3,0,0,0-.61,1.2.76.76,0,0,0,.09.49l.08.11-.09-.06a1.66,1.66,0,0,0-1,0,1.56,1.56,0,0,0,.57.83.62.62,0,0,0,.55.1l0,0v1a2.91,2.91,0,0,1-2.33.26l-.15-.58.09,0a.65.65,0,0,0,.4-.14,1.5,1.5,0,0,0,.58-.82,1.59,1.59,0,0,0-1,0,.7.7,0,0,0-.24.17h0V5a.86.86,0,0,0,0-.86c-.21-.45-.61-.6-1.17-.91L8.68,7Z"/><path class="cls-1" d="M19.78,11.85l.22,0,.25.07.11.06a.41.41,0,0,1,.11.07.34.34,0,0,1,.09.08l.06.09a.41.41,0,0,1,0,.08.2.2,0,0,1,0,.07.28.28,0,0,1,0,.06l0-.06s0,0,0-.06l0-.07-.07-.07-.08-.07-.1-.05L20.21,12A.9.9,0,0,0,20,12l-.2,0-.21,0h.21m-1.22.27a2.07,2.07,0,0,1-.08-.2l-.11-.21-.07-.11-.07-.09-.08-.07-.08,0-.08,0-.06,0H18l.09,0,.09.05.1.07a.39.39,0,0,1,.08.1,1,1,0,0,1,.08.11,1.6,1.6,0,0,1,.1.23,1.15,1.15,0,0,1,.06.21,1,1,0,0,1,0,.2l-.06-.19m.23.06a1.5,1.5,0,0,0-.32-.83,1.41,1.41,0,0,0-1.14-.49,1.2,1.2,0,0,1,.2.32.47.47,0,0,0-.34.28c.11-.08.29.1.29.1-.27.36-.07.54-.07.54a.56.56,0,0,1,.94.08c.58.92-1.1,1.33-1.1,1.33s.62.29,1.22-.42c0,.21.1.33.12.31s.17-1.73,1.16-1.29A.56.56,0,0,1,20,13s.2.17.52-.16c0,0,.21.16.14.29a.47.47,0,0,0,.23-.38,1.15,1.15,0,0,1,.35.15,1.42,1.42,0,0,0-.65-1.06,1.36,1.36,0,0,0-1.64.17l-.13.14"/><path class="cls-1" d="M5.47,11l.2-.25.1-.13a.25.25,0,0,1,0-.07l.09-.2a1.86,1.86,0,0,0,.1-.25S6,10,6,9.94a.53.53,0,0,1,0-.12.36.36,0,0,1,0-.11s0-.08,0-.11V9.44a.53.53,0,0,1,0,.16v.11s0,.08,0,.12a1.25,1.25,0,0,1-.07.26.87.87,0,0,1-.07.17l.1-.14a2.52,2.52,0,0,0,.15-.27.31.31,0,0,0,0-.12.16.16,0,0,0,0-.09.24.24,0,0,0,0-.08v.08a.34.34,0,0,1,0,.1.31.31,0,0,1,0,.13.88.88,0,0,1,0,.15,1.09,1.09,0,0,1-.08.15c-.06.11-.13.21-.2.32l-.24.28L5.52,11a1,1,0,0,1-.18.15l-.06,0L5.47,11m1-2.5,0-.06-.09-.11a.94.94,0,0,1-.1-.1A.48.48,0,0,1,6.1,8.1L5.89,8l-.22-.11a.81.81,0,0,1,.24.07l.23.12.12.08.1.11a.52.52,0,0,1,.1.11.61.61,0,0,1,0,.06.16.16,0,0,0,0,.07l0,.12,0,.07v.05a.38.38,0,0,1,0,.1V8.9a.12.12,0,0,1,0,.07.42.42,0,0,0,0-.07s0,0,0-.07a1,1,0,0,1,0-.1.26.26,0,0,0,0-.1.34.34,0,0,0-.06-.12l0,0m-2,2c.54.09.51,1.34.51,1.34a2.87,2.87,0,0,0,.18-.34A3.54,3.54,0,0,0,6.74,9.6h0c.24-.27.71-.72,1-.53a.55.55,0,0,0-.33-.22.58.58,0,0,0,.48-.2A.83.83,0,0,0,6.81,9a1.72,1.72,0,0,0-.06-.44C6.36,7,5.15,7.73,5,8s0,.2,0,.2A.51.51,0,0,1,5.51,8c-.15.06,0,.21,0,.21a1.15,1.15,0,0,1,1,1.14c-.29-.63-.66-.56-.66-.56a1,1,0,0,1,0,.88c-.08-.17-.3,0-.3,0,.4.43-.17,1.44-.35,1.74C5.61,10.2,4.57,10,4.57,10a.56.56,0,0,0,.24.46.64.64,0,0,0-.4,0"/><path class="cls-1" d="M17.25,8.9V8.82a.38.38,0,0,1,0-.1V8.67a.19.19,0,0,0,0-.07s0-.08.05-.12a.16.16,0,0,0,0-.07.61.61,0,0,1,0-.06.52.52,0,0,1,.1-.11l.1-.11.12-.08L18,7.93a.9.9,0,0,1,.24-.07L18,8l-.21.13a.48.48,0,0,1-.11.09l-.1.1-.09.11,0,.06,0,0a.67.67,0,0,0-.06.12.26.26,0,0,0,0,.1.54.54,0,0,0,0,.1.25.25,0,0,0,0,.07.42.42,0,0,0,0,.07.12.12,0,0,1,0-.07m.28.66a.24.24,0,0,0,0,.08.16.16,0,0,0,0,.09.61.61,0,0,0,.05.12,2.52,2.52,0,0,0,.15.27l.1.14a.87.87,0,0,1-.07-.17,1.25,1.25,0,0,1-.07-.26.48.48,0,0,1,0-.12.4.4,0,0,1,0-.11.32.32,0,0,1,0-.16l0-.06a.15.15,0,0,0,0,.06V9.6s0,.07,0,.11a.36.36,0,0,1,0,.11.53.53,0,0,1,0,.12l0,.13a2.44,2.44,0,0,0,.1.24c0,.07.07.14.09.2a.25.25,0,0,1,0,.07,1.13,1.13,0,0,1,.1.13l.2.25.19.24-.06,0a.73.73,0,0,1-.17-.15,2.49,2.49,0,0,1-.23-.23l-.24-.28c-.07-.11-.14-.21-.2-.32L17.62,10a.88.88,0,0,1-.05-.15.31.31,0,0,1,0-.13.34.34,0,0,1,0-.1Zm-1.11-.71a.55.55,0,0,0-.33.22c.34-.19.81.26,1.05.53h0a3.49,3.49,0,0,0,1.63,1.82c0,.1.11.22.18.34s0-1.25.51-1.34a.64.64,0,0,0-.4,0,.56.56,0,0,0,.24-.46s-1,.21-.56,1.36c-.18-.3-.74-1.31-.35-1.74,0,0-.22-.16-.3,0a1,1,0,0,1,0-.88s-.37-.07-.66.56a1.15,1.15,0,0,1,.95-1.14s.16-.15,0-.21a.49.49,0,0,1,.44.2s.15,0,0-.2-1.33-.91-1.72.62a1.72,1.72,0,0,0-.06.44.83.83,0,0,0-1.13-.36.58.58,0,0,0,.48.2"/><path class="cls-1" d="M3.29,12.4a.2.2,0,0,1,0-.07.41.41,0,0,1,0-.08.47.47,0,0,1,.06-.09.34.34,0,0,1,.09-.08l.1-.07L3.7,12,4,11.88l.22,0h.21l-.21,0L4,12a.9.9,0,0,0-.23.08l-.12.05-.1.05-.08.07-.07.07,0,.07s0,.05,0,.06l0,.06a.28.28,0,0,1,0-.06m2-.29a1.15,1.15,0,0,1,.06-.21,1.6,1.6,0,0,1,.1-.23,1,1,0,0,1,.08-.11.39.39,0,0,1,.08-.1l.1-.07.09-.05.09,0H6l-.06,0-.08,0-.08,0-.08.07-.07.09-.07.11a2,2,0,0,0-.1.21l-.09.2a1.4,1.4,0,0,1-.07.19,1.57,1.57,0,0,1,0-.2m-2.2.67a.47.47,0,0,0,.23.38c-.07-.13.14-.29.14-.29.31.33.52.16.52.16a.56.56,0,0,1,.22-.92.67.67,0,0,1,.92.41h0a1.78,1.78,0,0,0,.12.29,3.61,3.61,0,0,1,.12.58s.09-.08.12-.25c.58.64,1.21.42,1.17.36s-1.05-.25-1.21-.81a.08.08,0,0,0,0,0,.65.65,0,0,1,.11-.48.56.56,0,0,1,.94-.08s.2-.18-.08-.54c0,0,.18-.18.3-.1a.45.45,0,0,0-.34-.28,1.07,1.07,0,0,1,.21-.32,1.4,1.4,0,0,0-1.14.49,1.55,1.55,0,0,0-.33.77A.27.27,0,0,0,5,12a1.36,1.36,0,0,0-1.64-.17,1.42,1.42,0,0,0-.65,1.06,1.15,1.15,0,0,1,.35-.15"/><path class="cls-1" d="M14,12.49l0,0a.2.2,0,0,0,.06-.15h0a.19.19,0,0,0-.08-.16.11.11,0,0,1,.07,0h.06a.29.29,0,0,0,.16,0,.41.41,0,0,0,.16,0l0,0h0a.21.21,0,0,0,.06-.1V12a.18.18,0,0,1-.07.05h0a.62.62,0,0,1-.19,0h0l.11,0,.09-.05s0,0,0-.05a.21.21,0,0,0,.06-.08h0a.47.47,0,0,0,.06-.15s0-.05,0-.08h0l0,0h0a.2.2,0,0,0-.13,0h.14s0,0,0,0l0,0h0l0,0a1,1,0,0,0-.18-.08H14.1v0h0l0,.06h0a.11.11,0,0,1-.08,0h0l-.08,0h-.11l0,0,0,0h.25s.07,0,.09,0l0,0h0l-.07,0-.07,0a.47.47,0,0,0-.17,0H13.8a.07.07,0,0,0,0-.06.09.09,0,0,0,0-.08.39.39,0,0,0-.16-.07h-.24a1.71,1.71,0,0,0-1.13.54.6.6,0,0,1,.3-.07h.06a.7.7,0,0,0-.43.5.34.34,0,0,1,.18,0h.06a.73.73,0,0,0-.23.41.76.76,0,0,0,0,.15h0l.06,0a1.61,1.61,0,0,1,.49-.13h.13a.71.71,0,0,1,.21,0h0a.13.13,0,0,1,.08.13.17.17,0,0,1,0,.07h0a.64.64,0,0,1-.28.26l-.11.05H13a2,2,0,0,0,.49-.06l.14,0h0l.18-.07.11,0"/><path class="cls-1" d="M15.45,11.39h0l0,0-.16-.07H15v0h0l0,.06h0l-.06,0h0l-.08,0H14.7v0l0,0H15s.07,0,.09,0l0,0h0l0,0,0,0-.07,0-.13,0h-.13a.08.08,0,0,0,0,0h0a.09.09,0,0,0,0-.08l-.07,0-.09,0h-.24l-.21,0v0a.07.07,0,0,1,0,.06l.1,0c.13,0,.19.1.21.16h0l0,0,.27.14h0s.09,0,.05.18,0,.27-.11.39l0,.06a.35.35,0,0,1-.05.23.28.28,0,0,1-.19.12h-.13l-.11,0a.06.06,0,0,1,0,.06c0,.13-.14.25-.36.35l0,0h.13a2,2,0,0,0,.49-.06l.14,0h0l.18-.07,0,0,.08,0,0,0a.2.2,0,0,0,.06-.15h0a.19.19,0,0,0-.08-.16h0a.09.09,0,0,1,.07,0H15a.29.29,0,0,0,.16,0,.33.33,0,0,0,.15,0l.05,0h0a.21.21,0,0,0,.06-.1h0v0h0a.18.18,0,0,1-.07.05h0a.62.62,0,0,1-.19,0h0l.11,0,.09-.05s0,0,.05-.05a.21.21,0,0,0,.06-.08h0a.47.47,0,0,0,.06-.15s0-.05,0-.08h0l0,0h0l-.09,0h.11a.05.05,0,0,0,0,0v0h0"/><path class="cls-1" d="M11.87,20.94s-.39-.79-3-1.66c0,0-3.56-1.28-1.86-4,0,0,1.62-2.85.32-4.83L8.82,8.92a8.75,8.75,0,0,0,3,.86A9.77,9.77,0,0,0,15,9l1.39,1.43c-1.29,2,.33,4.83.33,4.83,1.7,2.76-1.86,4-1.86,4-2.59.87-3,1.66-3,1.66m1.87-.05.18.12.19.17a1,1,0,0,1,.08.11l.06.11a.36.36,0,0,1,0,.11.37.37,0,0,1,0,.11v.09a.14.14,0,0,0,0,.06l0,.05a.12.12,0,0,0,0-.05.16.16,0,0,0,0-.07v-.08l0-.09a1,1,0,0,0,0-.1.86.86,0,0,0-.07-.1.86.86,0,0,1-.07-.1l-.18-.17a.91.91,0,0,0-.16-.13l-.16-.13a.81.81,0,0,1,.19.09m.77.23a1.58,1.58,0,0,1,.07-.16l.12-.2.16-.22a1.8,1.8,0,0,1,.19-.2.73.73,0,0,1,.09-.08.47.47,0,0,1,.09-.06l.09-.05.06,0h.06l0,0s0,0-.06,0l-.07.05-.17.16-.08.1.11-.09.17-.09.09,0,.08,0h.07l-.07,0-.07,0-.07,0-.09,0-.08.05-.15.11-.12.11-.05,0-.07.09-.14.19a1.26,1.26,0,0,1-.14.18l0-.05m1.34-1.33.06,0h.16l.1,0h.06l.05,0,.1,0,.09.06.08.07a.53.53,0,0,1,.12.14.47.47,0,0,1,.1.15l-.12-.13L16.52,20,16.44,20l-.09-.06-.1,0,0,0h-.05l-.09,0h-.22m-5.6,1.14-.17.13-.16.17-.08.1a.21.21,0,0,0-.06.1.19.19,0,0,0,0,.1.32.32,0,0,0,0,.09.19.19,0,0,1,0,.08s0,.05,0,.07v0s0,0,0,0,0,0,0-.06,0-.06,0-.09,0-.08,0-.11a.36.36,0,0,1,0-.11l.06-.11.08-.11L10,21a1.4,1.4,0,0,1,.18-.12.65.65,0,0,1,.19-.09.77.77,0,0,0-.16.13m-1,.06-.14-.19-.07-.09,0,0-.13-.11-.15-.11-.08-.05-.08,0-.08,0-.07,0-.06,0h.07l.08,0,.08,0,.17.09.11.09-.08-.1a1.25,1.25,0,0,0-.17-.16.18.18,0,0,0-.07-.05s0,0-.06,0l-.05,0H8.5l.07,0,.08.05a.24.24,0,0,1,.09.06l.1.08.18.2a2.39,2.39,0,0,1,.16.22L9.3,21a1.15,1.15,0,0,1,.08.15s0,0,0,.05L9.26,21M8,19.8H7.81l-.09,0h0l0,0-.09,0L7.45,20,7.36,20l-.13.12-.11.12a.51.51,0,0,1,.09-.14A.53.53,0,0,1,7.33,20l.09-.07.09-.06.1,0,0,0h0l.1,0H8l.05,0H8m9.24-4.54s-1.79-2.78-.36-5L15.13,8.46a9.74,9.74,0,0,1-3.21.78,9.66,9.66,0,0,1-3.2-.78L6.94,10.3c1.43,2.18-.36,5-.36,5-1.88,3,2.05,4.46,2.05,4.46a13.7,13.7,0,0,1,2.07.87,1.45,1.45,0,0,0-1.16.66l0,.07h0c-.13-.48-.57-1.66-1.7-1.68s-.88,1-.75,1.1.15,0,.15,0a.35.35,0,0,1-.06-.35c0,.11.15,0,.15,0a.83.83,0,0,1,1-.45c-.5.09-.52.36-.52.36a.68.68,0,0,1,.61.19c-.13,0-.06.2-.06.2.41-.21,1.09.49,1.2.61a1.32,1.32,0,0,0-.07,1.15,1,1,0,0,1,.23-.29.47.47,0,0,0,.38.23c-.11-.08,0-.31,0-.31.43.15.53-.1.53-.1a.56.56,0,0,1-.21-.92c.61-.75,1.41.34,1.58.58h0l0,0s0,0,0,0h0c.16-.24,1-1.33,1.58-.58a.56.56,0,0,1-.21.92s.1.25.53.1c0,0,.11.23,0,.31a.45.45,0,0,0,.37-.23,1,1,0,0,1,.24.29,1.38,1.38,0,0,0-.09-1.21c.19-.2.78-.74,1.14-.55,0,0,.07-.18-.06-.2a.68.68,0,0,1,.61-.19s0-.27-.51-.36a.84.84,0,0,1,1,.45s.13.09.15,0a.35.35,0,0,1-.06.35s0,.11.15,0,.4-1.11-.76-1.1-1.51,1.06-1.67,1.58a1.37,1.37,0,0,0-1.26-.61,13,13,0,0,1,2.07-.89s3.94-1.41,2.06-4.46"/><path class="cls-1" d="M16.79,17.33V15.79a2.35,2.35,0,0,1,.15.8,1.87,1.87,0,0,1-.1.62.61.61,0,0,1-.05.12m-.37.58a1.9,1.9,0,0,1-.24.25V14.55c.09.22.18.39.24.51ZM12,13.57V10.05h0a9.41,9.41,0,0,0,2.91-.77L16.1,10.5a4,4,0,0,0-.26,3.07Zm3.84,4.9-.24.16v-5h.24Zm-.61.37L15,19V13.65h.23Zm-.6.26-.24.08V13.65h.24Zm-.61.22-.24.1V13.65H14Zm-.61.27-.23.11v-6h.23Zm-.6.32-.24.14v-6.4h.24Zm-.61.42-.2.2V13.65h.2Zm-.31-10a.56.56,0,0,0-.19-.31h.19Zm0,.77a.57.57,0,0,0-.24-.29.51.51,0,0,0,.24-.33Zm0,.93a.6.6,0,0,0-.24-.28.53.53,0,0,0,.24-.27Zm0,1.52h-.33a.49.49,0,0,0,.28-.44.49.49,0,0,0-.21-.41.53.53,0,0,0,.26-.29Zm0,7a2,2,0,0,0-.43-.38,8.51,8.51,0,0,0-2.35-1.11A3.82,3.82,0,0,1,7,17.21a2.26,2.26,0,0,1,.33-2A8.2,8.2,0,0,0,8,13.65h3.9ZM8.08,13.13a.55.55,0,0,0,.32.44H8a4.5,4.5,0,0,0,.1-.44m0-1.65a3.26,3.26,0,0,0-.11-.4.36.36,0,0,1,.12.28.49.49,0,0,1,0,.12m-.23-.68a1.57,1.57,0,0,0-.16-.29L8,10.24a.31.31,0,0,1,.1.24.34.34,0,0,1-.21.32m.28-.06a.6.6,0,0,0,.21.21.49.49,0,0,0-.16.16.54.54,0,0,0-.2-.22.43.43,0,0,0,.15-.15M8.28,10l.07.06a.73.73,0,0,0-.19.2l-.06-.08Zm.37.13a.38.38,0,0,1,.38.39.39.39,0,0,1-.38.39.4.4,0,0,1-.4-.39.39.39,0,0,1,.4-.39m.21-.71a.33.33,0,0,1,.08.22.34.34,0,0,1-.28.34H8.58a.4.4,0,0,1-.2-.08Zm.2.36A.63.63,0,0,0,9.3,10a.39.39,0,0,0-.18.2A.6.6,0,0,0,8.89,10a.49.49,0,0,0,.17-.25M9,9.27l0,0,.09,0A.31.31,0,0,0,9,9.4.36.36,0,0,0,9,9.28Zm.27.06c.17.08.43.18.72.29a.39.39,0,0,1-.77-.09.46.46,0,0,1,.05-.2m.84.43a.46.46,0,0,0,.18.21.55.55,0,0,0-.26.24.55.55,0,0,0-.17-.2.51.51,0,0,0,.25-.25m.6.1a.29.29,0,0,1-.16,0,.36.36,0,0,1-.31-.19l.47.15m.18,0a2.06,2.06,0,0,0,.32.07.51.51,0,0,0-.24.24.5.5,0,0,0-.22-.21.71.71,0,0,0,.14-.1m.5,1.79a.38.38,0,0,1-.39-.38.39.39,0,0,1,.39-.4.4.4,0,0,1,.39.4.39.39,0,0,1-.39.38m0,.94a.38.38,0,0,1-.39-.39.39.39,0,0,1,.39-.39.4.4,0,0,1,.39.39.39.39,0,0,1-.39.39m-.37.5a.35.35,0,0,1,.35-.35.34.34,0,0,1,.33.35.33.33,0,0,1-.33.33.34.34,0,0,1-.35-.33m-.08.23a.45.45,0,0,0,.22.21h-.47a.57.57,0,0,0,.25-.21m-.85-.29a.38.38,0,0,1,.39-.39.39.39,0,0,1,.39.39.4.4,0,0,1-.39.39.39.39,0,0,1-.39-.39m-.1.25a.59.59,0,0,0,.27.25H9.71a.49.49,0,0,0,.24-.25m-.78-.19a.34.34,0,1,1,.68,0,.34.34,0,0,1-.68,0m-.09.23a.5.5,0,0,0,.22.21H8.84a.54.54,0,0,0,.24-.21m-.46-.68a.38.38,0,0,1,.39.39.39.39,0,0,1-.39.39.4.4,0,0,1-.39-.39.39.39,0,0,1,.39-.39m-.45-.36a.52.52,0,0,0,.2.26.6.6,0,0,0-.24.26,3.28,3.28,0,0,0,0-.52m.21-.54a.54.54,0,0,0-.21.28c0-.12,0-.23,0-.34l.06-.1a.44.44,0,0,0,.17.16M9,11.36a.33.33,0,0,1-.29.34H8.6a.34.34,0,0,1,0-.68.34.34,0,0,1,.34.34m.32-.54a.59.59,0,0,0-.25.27A.8.8,0,0,0,8.9,11a.55.55,0,0,0,.25-.27.4.4,0,0,0,.13.13m.28-.06a.35.35,0,0,1-.35-.34.35.35,0,0,1,.35-.34.34.34,0,0,1,.33.34.34.34,0,0,1-.33.34m.63.19a.44.44,0,0,0-.16.14.53.53,0,0,0-.23-.26.36.36,0,0,0,.16-.14.53.53,0,0,0,.23.26m.27-.08a.39.39,0,0,1-.39-.39.38.38,0,0,1,.39-.39.39.39,0,0,1,.39.39.4.4,0,0,1-.39.39m.38.22a.53.53,0,0,0-.13-.13.51.51,0,0,0,.25-.27.4.4,0,0,0,.13.13.59.59,0,0,0-.25.27m-.13.68a.52.52,0,0,0,.17-.19.44.44,0,0,0,.19.19.52.52,0,0,0-.18.18.52.52,0,0,0-.18-.18m.14.7a.57.57,0,0,0,.22.24.57.57,0,0,0-.14.13.47.47,0,0,0-.22-.24.57.57,0,0,0,.14-.13m-.73-.29a.33.33,0,0,1,.3-.33h.06a.33.33,0,0,1,.32.33.34.34,0,1,1-.68,0m-.07.25a.4.4,0,0,0,.14.15.59.59,0,0,0-.26.3.57.57,0,0,0-.15-.16.55.55,0,0,0,.27-.29m-.91-.19a.39.39,0,0,1,.78,0,.39.39,0,0,1-.78,0M9,12.47a.53.53,0,0,0,.23.24.44.44,0,0,0-.14.13.57.57,0,0,0-.22-.24A.4.4,0,0,0,9,12.47m0-.29a.34.34,0,1,1-.38-.33h.07a.32.32,0,0,1,.31.33m.27-.41a.62.62,0,0,0-.18.18.42.42,0,0,0-.17-.18.49.49,0,0,0,.16-.19.44.44,0,0,0,.19.19m.28-.08a.38.38,0,0,1-.39-.38.39.39,0,1,1,.78,0,.38.38,0,0,1-.39.38m.57-.33a.34.34,0,0,1,.34-.34.35.35,0,0,1,.34.34.34.34,0,0,1-.3.34h-.06a.34.34,0,0,1-.32-.34m.09.42A.39.39,0,0,0,10,12a.63.63,0,0,0-.21-.22.52.52,0,0,0,.2-.19.49.49,0,0,0,.18.2m1.18-1.7a.34.34,0,0,1,.34.34.35.35,0,0,1-.34.34.34.34,0,0,1-.34-.34.34.34,0,0,1,.34-.34m5.19,5.13a7.7,7.7,0,0,1-.65-1.65,3.64,3.64,0,0,1,.26-3.05v0L14.9,9.22h0a9.46,9.46,0,0,1-3,.77,2.36,2.36,0,0,1-.37,0l-.23,0A10.1,10.1,0,0,1,9,9.17H9L7.65,10.5v0a3.86,3.86,0,0,1,.27,3,8.83,8.83,0,0,1-.66,1.65,2.31,2.31,0,0,0-.34,2,3.92,3.92,0,0,0,2.13,1.88,8.6,8.6,0,0,1,2.33,1.09,1.81,1.81,0,0,1,.5.47l0,.06,0-.06a1.81,1.81,0,0,1,.5-.47,8.6,8.6,0,0,1,2.33-1.09,3.88,3.88,0,0,0,2.12-1.88,2.3,2.3,0,0,0-.33-2"/><polygon class="cls-1" points="10.72 15.75 10.83 15.99 10.94 15.75 11.21 15.78 11.04 15.56 11.21 15.34 10.94 15.37 10.83 15.12 10.72 15.37 10.45 15.34 10.61 15.56 10.45 15.78 10.72 15.75"/><polygon class="cls-1" points="9.54 18.33 9.65 18.58 9.76 18.33 10.02 18.36 9.86 18.14 10.02 17.92 9.76 17.95 9.65 17.7 9.54 17.95 9.27 17.92 9.43 18.14 9.27 18.36 9.54 18.33"/><polygon class="cls-1" points="11.06 16.37 10.79 16.34 10.95 16.56 10.79 16.78 11.06 16.75 11.16 17 11.27 16.75 11.54 16.78 11.38 16.56 11.54 16.34 11.27 16.37 11.16 16.13 11.06 16.37"/><polygon class="cls-1" points="9.54 15.18 9.65 15.42 9.76 15.18 10.02 15.2 9.86 14.99 10.02 14.77 9.76 14.8 9.65 14.55 9.54 14.8 9.27 14.77 9.43 14.99 9.27 15.2 9.54 15.18"/><polygon class="cls-1" points="10.68 17.81 10.79 18.06 10.9 17.81 11.16 17.84 11.01 17.62 11.16 17.4 10.9 17.43 10.79 17.18 10.68 17.43 10.41 17.4 10.57 17.62 10.41 17.84 10.68 17.81"/><polygon class="cls-1" points="8.56 17.43 8.45 17.18 8.34 17.43 8.07 17.4 8.23 17.62 8.07 17.84 8.34 17.81 8.45 18.06 8.56 17.81 8.83 17.84 8.67 17.62 8.83 17.4 8.56 17.43"/><polygon class="cls-1" points="8.38 15.7 8.48 15.94 8.59 15.7 8.86 15.72 8.7 15.51 8.86 15.29 8.59 15.32 8.48 15.07 8.38 15.32 8.11 15.29 8.27 15.51 8.11 15.72 8.38 15.7"/><polygon class="cls-1" points="7.69 16.34 7.85 16.56 7.69 16.78 7.96 16.75 8.07 17 8.18 16.75 8.45 16.78 8.29 16.56 8.45 16.34 8.18 16.37 8.07 16.13 7.96 16.37 7.69 16.34"/><path class="cls-1" d="M38.64,7.4h0a2,2,0,0,1,1.94,2h0v10H38.64Z"/><path class="cls-1" d="M71.86,7.4h0a2,2,0,0,1,1.93,2h0v10H71.86Z"/><path class="cls-1" d="M43.29,8.11A1.14,1.14,0,1,1,42.1,9.23a1.16,1.16,0,0,1,1.19-1.12m-.93,3.71h1.9v7.57h-1.9Z"/><path class="cls-1" d="M82.17,19.1h-.56a1.17,1.17,0,0,1-1.17-1.17h0a2.29,2.29,0,0,1-2.23,1.35c-2,0-2.67-1.39-2.67-2.89V11.82h1.83v3.71c0,.82.06,2.14,1.33,2.14a1.63,1.63,0,0,0,1.68-1.85v-4h1.82Z"/><path class="cls-1" d="M83.72,7.45h0a1.85,1.85,0,0,1,1.85,1.86v3.33h.05a3.08,3.08,0,0,1,2.52-1.13,3.64,3.64,0,0,1,3.58,3.9,3.6,3.6,0,0,1-3.66,3.9A2.84,2.84,0,0,1,85.51,18h0v1.12H83.72Zm4,5.77a2.23,2.23,0,1,0,2.18,2.27v-.05a2.14,2.14,0,0,0-2.05-2.23H87.7Z"/><path class="cls-1" d="M49.67,17.76a1,1,0,0,1-1-1V13.06h1.08V11.19h-1.1V10a1.92,1.92,0,0,0-1.92-1.87v3.1H45.68v1.88h1.09v4.68a1.92,1.92,0,0,0,1.92,1.91l1.09-1.88h-.11Z"/><path class="cls-1" d="M54.49,19.29A4.16,4.16,0,0,1,51,17.45a3.9,3.9,0,0,1-.55-1.21,4.11,4.11,0,0,1-.15-1.1,3.07,3.07,0,0,1,0-.68,4.15,4.15,0,0,1,8.2,0,3.68,3.68,0,0,1,.06.66,4.44,4.44,0,0,1-.11,1H52l.16.3a2.62,2.62,0,0,0,2.31,1.37h3.22a4.13,4.13,0,0,1-3.21,1.53Zm0-6.79A2.62,2.62,0,0,0,52,14.37l-.08.26h5.19L57,14.37A2.62,2.62,0,0,0,54.5,12.5Z"/><path class="cls-1" d="M70,18.71a5.45,5.45,0,0,1-3.15.94,6.27,6.27,0,0,1-4-1.29l0,0a6.42,6.42,0,0,1-1.31-1.58l-.11-.19a6.48,6.48,0,0,1-.7-3,5.82,5.82,0,0,1,6.11-6.13,5.12,5.12,0,0,1,3,.86L68.8,10a2.91,2.91,0,0,0-2-.67,3.92,3.92,0,0,0-4,4.12,4,4,0,0,0,4,4.3,3,3,0,0,0,2.1-.86Z"/><path class="cls-1" d="M31.53,9.76v2.9H35.6v1.9H31.53v2a1,1,0,0,0,1,1H37.3v1.87h-6a1.92,1.92,0,0,1-1.65-1.87V7.84h5.85a1.9,1.9,0,0,1,1.85,1.88v0Z"/></svg>