<svg xmlns="http://www.w3.org/2000/svg" width="103.649" height="20" viewBox="0 0 103.649 20"><g transform="translate(0)"><g transform="translate(0 0)"><g transform="translate(3.428 3.651)"><path d="M8.7,16.556a.951.951,0,0,1-.728-1.562l3.369-4.016a3.758,3.758,0,0,0-.21-5.132,3.853,3.853,0,0,0-5.441,0,3.77,3.77,0,0,0-.241,5.128L7.33,13.089a.951.951,0,0,1-.075,1.342h0a.952.952,0,0,1-1.344-.076L4,12.22a5.726,5.726,0,0,1,4.4-9.4,5.726,5.726,0,0,1,4.064,1.676,5.664,5.664,0,0,1,.338,7.707L9.439,16.218a.955.955,0,0,1-.729.339" transform="translate(-2.645 -2.818)" fill="#333333"/></g><path d="M7.169,20a.951.951,0,0,1-.7-.308L2.165,15A9.036,9.036,0,0,1,2.711,2.674a9.19,9.19,0,0,1,12.969.008,9.037,9.037,0,0,1,.532,12.289l-3.747,4.493a.951.951,0,0,1-1.34.122h0A.951.951,0,0,1,11,18.246h0l3.757-4.5a7.143,7.143,0,0,0-.42-9.716,7.3,7.3,0,0,0-10.3,0,7.14,7.14,0,0,0-.45,9.713l3.558,3.88,2.493-2.859a.951.951,0,1,1,1.434,1.25h0L7.885,19.673A.955.955,0,0,1,7.179,20Z" transform="translate(0 0)" fill="#333333"/><g transform="translate(7.45 7.739)"><path d="M9.245,7.721A1.748,1.748,0,1,1,7.5,5.973,1.748,1.748,0,0,1,9.245,7.721" transform="translate(-5.75 -5.973)" fill="#333333"/></g></g><path d="M22.292,13.131a3.48,3.48,0,0,1-.932.111,1.261,1.261,0,0,1-1.082-.43,2.467,2.467,0,0,1-.319-1.432V8a.011.011,0,0,1,.01-.009h2.941a.011.011,0,0,0,.01-.01V6.395a.011.011,0,0,0-.01-.01H19.97a.011.011,0,0,1-.01-.01V4.642a1,1,0,0,0-.877-1.008.962.962,0,0,0-1.046.872c0,.029,0,.058,0,.087v6.8a6.918,6.918,0,0,0,.143,1.47,2.758,2.758,0,0,0,.494,1.1,2.19,2.19,0,0,0,.947.692A4.039,4.039,0,0,0,21.1,14.9a4.8,4.8,0,0,0,1.274-.152,7.265,7.265,0,0,0,.868-.292V14.44l-.314-1.508-.009-.009h0q-.309.119-.627.206Z" transform="translate(5.33 1.073)" fill="#333333"/><path d="M27.092,5.708c-.172-.026-.342-.047-.509-.063a4.081,4.081,0,0,0-.446-.023,8.738,8.738,0,0,0-1.854.183,10.737,10.737,0,0,0-1.386.389V14.1a.011.011,0,0,0,.01.01h1.906a.011.011,0,0,0,.01-.01V7.444a4.064,4.064,0,0,1,.495-.109,3.819,3.819,0,0,1,.676-.063,4.868,4.868,0,0,1,.979.088,6.158,6.158,0,0,1,.648.165l.012-.006h0l.329-1.6V5.9c-.095-.031-.219-.065-.374-.1s-.321-.067-.5-.092Z" transform="translate(6.768 1.661)" fill="#333333"/><path d="M33.038,6.5A2.566,2.566,0,0,0,32,5.834,4.706,4.706,0,0,0,30.394,5.6a8.4,8.4,0,0,0-1.5.13,7.83,7.83,0,0,0-1.06.253v.01l.236,1.54.009.009h0a5.453,5.453,0,0,1,.9-.219,7.328,7.328,0,0,1,1.226-.095,2.267,2.267,0,0,1,.82.13,1.267,1.267,0,0,1,.8.891,2.5,2.5,0,0,1,.079.636V9.2a6.349,6.349,0,0,0-.748-.13,6.07,6.07,0,0,0-.669-.04,6.29,6.29,0,0,0-1.312.13,3.264,3.264,0,0,0-1.106.446,2.289,2.289,0,0,0-.755.8,2.425,2.425,0,0,0-.279,1.21,2.878,2.878,0,0,0,.247,1.258,2.166,2.166,0,0,0,.684.828,2.856,2.856,0,0,0,1.058.461,6.076,6.076,0,0,0,1.368.144,13.8,13.8,0,0,0,2.029-.13q.892-.13,1.337-.229l.008-.009V8.9a5.121,5.121,0,0,0-.167-1.345A2.506,2.506,0,0,0,33.038,6.5ZM31.9,12.669l-.008.01a7.307,7.307,0,0,1-1.345.093,2.212,2.212,0,0,1-1.166-.259,1.02,1.02,0,0,1-.429-.947,1,1,0,0,1,.159-.58,1.066,1.066,0,0,1,.421-.359,2.035,2.035,0,0,1,.589-.175,4.347,4.347,0,0,1,.648-.048,4.275,4.275,0,0,1,.669.048,3.875,3.875,0,0,1,.455.093l.006.009Z" transform="translate(7.993 1.653)" fill="#333333"/><path d="M43.028,5.6a3.842,3.842,0,0,0-1.432.279,3.569,3.569,0,0,0-1.241.828,4.044,4.044,0,0,0-.868,1.377,5.217,5.217,0,0,0-.326,1.925,5.577,5.577,0,0,0,.259,1.727A3.708,3.708,0,0,0,40.2,13.1a3.551,3.551,0,0,0,1.337.907,5.11,5.11,0,0,0,1.91.326,7.33,7.33,0,0,0,.843-.048c.276-.032.535-.071.777-.119a5.93,5.93,0,0,0,.636-.159,3.209,3.209,0,0,0,.431-.163v-.01l-.251-1.555-.009-.009h0a5.271,5.271,0,0,1-.907.266,6,6,0,0,1-1.281.13,2.691,2.691,0,0,1-1.823-.549,2.19,2.19,0,0,1-.707-1.54c0-.005,0-.01.009-.012h5.473a.011.011,0,0,0,.01-.009q.016-.155.023-.35c.005-.13.008-.251.008-.358a4.619,4.619,0,0,0-.963-3.183A3.43,3.43,0,0,0,43.028,5.6Zm-1.85,3.55a.011.011,0,0,1-.01-.01h0a3.377,3.377,0,0,1,.174-.7,2.023,2.023,0,0,1,.359-.621,1.775,1.775,0,0,1,.565-.438,1.733,1.733,0,0,1,.777-.167,1.679,1.679,0,0,1,.741.152,1.556,1.556,0,0,1,.525.413,1.83,1.83,0,0,1,.326.621,2.558,2.558,0,0,1,.111.746.011.011,0,0,1-.01.01Z" transform="translate(11.575 1.653)" fill="#333333"/><path d="M66.191,6.79a3.556,3.556,0,0,0-1.266-.884A4.132,4.132,0,0,0,63.309,5.6a4.072,4.072,0,0,0-1.608.311,3.653,3.653,0,0,0-1.264.884,4.016,4.016,0,0,0-.828,1.376,5.2,5.2,0,0,0-.294,1.791,5.247,5.247,0,0,0,.294,1.8,4.063,4.063,0,0,0,.82,1.384,3.679,3.679,0,0,0,1.257.891,4.015,4.015,0,0,0,1.623.319,4.1,4.1,0,0,0,1.631-.319,3.65,3.65,0,0,0,1.266-.891,4,4,0,0,0,.812-1.384,5.371,5.371,0,0,0,.286-1.8,5.171,5.171,0,0,0-.294-1.791A4.1,4.1,0,0,0,66.191,6.79ZM64.8,11.946a1.878,1.878,0,0,1-2.634.346,1.9,1.9,0,0,1-.346-.346,3.314,3.314,0,0,1-.532-1.989,3.25,3.25,0,0,1,.532-1.965,1.892,1.892,0,0,1,2.656-.324,1.915,1.915,0,0,1,.324.324,3.25,3.25,0,0,1,.533,1.965A3.323,3.323,0,0,1,64.8,11.946Z" transform="translate(17.533 1.654)" fill="#333333"/><path d="M70.839,5.708c-.172-.026-.342-.047-.509-.063a4.08,4.08,0,0,0-.446-.023A8.738,8.738,0,0,0,68.03,5.8a10.737,10.737,0,0,0-1.386.389V14.1l.008.01h1.907a.011.011,0,0,0,.01-.01V7.444a4.064,4.064,0,0,1,.495-.109,3.819,3.819,0,0,1,.676-.063,4.868,4.868,0,0,1,.979.088,6.157,6.157,0,0,1,.648.165l.012-.006h0l.33-1.6V5.9c-.095-.031-.219-.065-.374-.1s-.321-.067-.5-.092Z" transform="translate(19.699 1.661)" fill="#333333"/><path d="M46.966,3.635a1,1,0,0,0-.876,1.008V14.694a.011.011,0,0,0,.01.01h1.906a.011.011,0,0,0,.009-.01V4.588a.963.963,0,0,0-.968-.957q-.041,0-.082,0Z" transform="translate(13.624 1.073)" fill="#333333"/><path d="M72.358,3.635a.962.962,0,0,0-1.049.864c0,.023,0,.047,0,.07V14.694a.011.011,0,0,0,.01.01h1.9a.011.011,0,0,0,.01-.01V4.642A1,1,0,0,0,72.358,3.635Z" transform="translate(21.077 1.073)" fill="#333333"/><path d="M79.785,4.594V6.657l-.008.01h-.006a4.914,4.914,0,0,0-.777-.311,3.62,3.62,0,0,0-1.066-.144,3.781,3.781,0,0,0-1.575.311,3.225,3.225,0,0,0-1.166.882,3.891,3.891,0,0,0-.724,1.376,6.1,6.1,0,0,0-.247,1.789,5.2,5.2,0,0,0,.3,1.806,3.791,3.791,0,0,0,.843,1.368,3.66,3.66,0,0,0,1.329.867,4.865,4.865,0,0,0,1.767.3,11.157,11.157,0,0,0,1.823-.144,11.488,11.488,0,0,0,1.433-.316l.007-.009V4.514a.965.965,0,0,0-1.925.08m0,8.513-.008.01c-.137.031-.312.06-.526.086a6.669,6.669,0,0,1-.788.04,2.057,2.057,0,0,1-1.671-.724,3.021,3.021,0,0,1-.605-2,3.413,3.413,0,0,1,.485-1.943,1.725,1.725,0,0,1,1.535-.716,2.659,2.659,0,0,1,.9.152,3,3,0,0,1,.672.323v.008Z" transform="translate(21.937 1.078)" fill="#333333"/><path d="M38.257,7.262q-.239.8-.5,1.608t-.536,1.555q-.266.742-.5,1.34l-.012.005-.005-.005q-.235-.6-.512-1.34T35.644,8.87q-.258-.8-.495-1.608L34.9,6.376a.833.833,0,0,0-.8-.618h-.3A.835.835,0,0,0,33,6.836q.558,1.835,1.21,3.483.838,2.12,1.635,3.757H37.5q.8-1.638,1.635-3.757.647-1.648,1.21-3.481A.835.835,0,0,0,39.788,5.8a.814.814,0,0,0-.242-.036h-.232a.832.832,0,0,0-.8.614q-.117.422-.254.889Z" transform="translate(9.745 1.702)" fill="#333333"/><path d="M55.655,4.911a.99.99,0,0,1,.951.706c.108.359.22.727.336,1.1q.29.939.6,1.88t.627,1.849q.313.908.6,1.711.241-.869.466-1.888t.451-2.121q.225-1.1.442-2.241.138-.725.266-1.437a.989.989,0,0,1,.976-.814h.051a1,1,0,0,1,.994,1,1.058,1.058,0,0,1-.019.192q-.472,2.385-1.025,4.62-.69,2.789-1.542,5.327H57.889q-1.246-3.245-2.411-7.087-.6,1.943-1.207,3.7t-1.223,3.391H51.114q-.867-2.54-1.548-5.327Q49.02,7.23,48.55,4.844a.994.994,0,0,1,.784-1.167,1.028,1.028,0,0,1,.189-.018h.141a.988.988,0,0,1,.976.812q.13.7.259,1.425.216,1.141.45,2.241t.474,2.129q.241,1.028.482,1.9.305-.82.619-1.727t.619-1.849q.305-.941.587-1.872.165-.552.319-1.082a.992.992,0,0,1,.954-.718Z" transform="translate(14.345 1.082)" fill="#333333"/></g></svg>